<svg xmlns="http://www.w3.org/2000/svg" viewBox="0 0 887.04 712.31"><defs><style>.cls-1{fill:#f2c834;}.cls-2,.cls-4{fill:#cf92b7;}.cls-3{fill:none;}.cls-3,.cls-4,.cls-5,.cls-6,.cls-7{stroke:#51192c;stroke-linecap:round;stroke-linejoin:round;stroke-width:12px;}.cls-5{fill:#c8d170;}.cls-6{fill:#51192c;}.cls-7{fill:#ed6e6f;}</style></defs><title>404teapot</title><g id="Layer_5" data-name="Layer 5"><path class="cls-1" d="M881,115.23c-.05-.94-.14-1.86-.28-2.78a20.28,20.28,0,0,0,.28-4.28A26.09,26.09,0,0,0,875.29,93,20.73,20.73,0,0,0,877,83.82a26.21,26.21,0,0,0-3.34-11.71,20.43,20.43,0,0,0-.61-9.66q-1.2-2.87-2.42-5.73a24,24,0,0,0-7-7.58,58.16,58.16,0,0,1-4.92-5l-.54-.78c-3.48-5.21-8.16-9.33-14.34-11-.48-.13-1-.24-1.47-.34a16.17,16.17,0,0,0-3.7-4.48c-5-4.13-9.71-7.45-16.16-9a39.12,39.12,0,0,0-14.69-.78,26.78,26.78,0,0,0-10.5.15c-3.88-.51-7.82-.87-11.8-1.05a21.86,21.86,0,0,0-13.6,4.28c-1.49.06-3,.11-4.48.13a25.55,25.55,0,0,0-18.1,8.38,23.64,23.64,0,0,0-9.79,9.1Q731,53,723.82,68.2a31.8,31.8,0,0,0-2.14,6,17.42,17.42,0,0,0-4.42,6c-.45.44-.89.91-1.32,1.27a44.17,44.17,0,0,0-7.86,8.66,50.17,50.17,0,0,0-7.14,15.56c-.32.32-.63.64-.93,1a56.89,56.89,0,0,0-7.08,10.09c-11.49,4.13-20.24,14.26-24.43,25.55-.12.31-.22.63-.33,1q-1.27-1.94-2.61-3.86c-8.5-12.25-17.9-25.64-29.64-35.08a19.73,19.73,0,0,0,2.48-5.92c3.13-13.73-4.18-24.69-16.76-29.53C608.06,63.7,593.18,60.82,579,57.67a316.06,316.06,0,0,0-48.67-7.21,19.31,19.31,0,0,0-7.51,1.06,167.42,167.42,0,0,0-33.34-1,28.48,28.48,0,0,0-11.78,3.52,89.45,89.45,0,0,0-36.49,11.84,129.4,129.4,0,0,0-17.8,12.17,206.36,206.36,0,0,0-42.51,25.24c-5.18,4-9.21,7.75-11,14.35a24.76,24.76,0,0,0-.75,7.88c-6.51,6-12.81,12.19-19,18.53-7.95,4-13.87,12.23-13.45,21.41A25.39,25.39,0,0,0,348.36,186a45,45,0,0,0-.76,4.62,180.56,180.56,0,0,0-.91,31.81l-.13-.06a340,340,0,0,0-114.63-33.94,14.17,14.17,0,0,0-4.41.26c-.33,0-2.79.24-3.71.26-1.73,0-3.44-.09-5.17-.14l-1.1-.23c-1.88-.57-3.85-1-5.76-1.55a38,38,0,0,0-18.76-.41,35.49,35.49,0,0,0-4.26,1.31c-1.93.7-7.16,1.6-.08.85-6.54.69-12.15,2.21-17,7-.41.41-.81.86-1.2,1.32A22.55,22.55,0,0,0,162.36,215c.58,13,10.55,24,24,24a24,24,0,0,0,12.92-4c.85-.24,1.7-.5,2.54-.81,1,.23,1.87.41,2.08.46a80.47,80.47,0,0,0,26.78,1.58l.56.09c1.73,1,3.42,2.13,5.07,3.29l1.23.77c.17.16.47.43,1,.85l12.21,9.84c6,4.8,12.11,9.45,17.69,14.7,5,12.08,12.32,22.38,20.83,32.21,0,.59.05,1.18.12,1.79.82,6.49,1.82,11.78,5.12,17.52a83,83,0,0,0,5.81,8.23c4.73,6.29,9.63,12.46,14.9,18.3a19.85,19.85,0,0,0,2.69,6.68,24.51,24.51,0,0,0,7,7.17A37.65,37.65,0,0,0,337,370.88c7.62,5.24,17,6.74,26,7.14s16.58-5,20.59-12.39a46,46,0,0,0,9.65-3.5,34.74,34.74,0,0,0,4.15,6.14,120.94,120.94,0,0,0,18.28,17.84c5.21,4.1,10.06,7,17,7a22.25,22.25,0,0,0,3.22-.25,47.59,47.59,0,0,0,20.81,13.74,20.37,20.37,0,0,0-.7,6.21c.58,13,10.55,24,24,24A24,24,0,0,0,492.76,433h.64a57.09,57.09,0,0,0,26-7.66c2.68-1.53,5.22-3.28,7.74-5.06a64.91,64.91,0,0,0,27.12-4c10.13-3.81,19.58-8.93,29.35-13.51a52,52,0,0,1,5.8-2.62c-6.11,2,1.52-.58,2.69-1q6.78-2.64,13.73-4.82,4.49-1.41,9-2.62c.6.1,1.21.19,1.84.27,9.45,1.22,18.76-.51,27.53-3.83a23.47,23.47,0,0,0,6.22.83c12.55,0,24.58-11,24-24a25.25,25.25,0,0,0-13.6-21.59q9.81-16.08,18.13-33a36.42,36.42,0,0,0,4.77-8.66c3.09-7.61,6.37-15.21,9.48-22.89a25.71,25.71,0,0,0,3.43.4,39.59,39.59,0,0,0,10.26-.92,18.4,18.4,0,0,0,15.17.68,57.59,57.59,0,0,0,11-5.86,47,47,0,0,0,27.42-42.48,24.83,24.83,0,0,0-7-16.82c.23-5,.44-9.93.72-14.87.34-5.94-2.22-11.74-6.33-16.16a150.56,150.56,0,0,1,.56-16,18.67,18.67,0,0,0-1.34-8.52c.9-2.81,1.7-5.65,2.38-8.55,5.77,5.27,14.46,6.95,22.08,5,3.23,9.57,11.8,16.71,22.64,16.71a22.72,22.72,0,0,0,6.75-1.06,23.13,23.13,0,0,0,14.45,5,21.93,21.93,0,0,0,4.21-.41,23.78,23.78,0,0,0,4.43.41,24,24,0,0,0,13.2-4.14,25.26,25.26,0,0,0,19.17-14.35,24.91,24.91,0,0,0,8.62-10.2,23.71,23.71,0,0,0,10.32-16.06A21.92,21.92,0,0,0,881,115.23Zm-48-7.06a25.65,25.65,0,0,0,.27,2.78c0,.24-.09.48-.12.72a24.13,24.13,0,0,0-3.82,5.93,24.76,24.76,0,0,0-8.55,10c-.33,0-.66.08-1,.14a23.66,23.66,0,0,0-4.42-.42,22.79,22.79,0,0,0-6.76,1.06,23.12,23.12,0,0,0-14.44-5,22.83,22.83,0,0,0-6.26.9,25.44,25.44,0,0,0-5.69-9.71L769.4,100.83a25.39,25.39,0,0,0,2.22-12.78l.69-.59c.38-.31,2.66-2.07,3.14-2.48l.84-.6q2.09-1.5,4.23-2.94c2.85-1.91,5.78-3.72,8.74-5.46a23.93,23.93,0,0,0,8.94-9.56c1.25.29,2.5.59,3.74.92,3.46.91,6.77,2.12,10.15,3.26l.34.11c1.76.85,3.53,1.66,5.27,2.56a26.38,26.38,0,0,0,4.53,1.8c1.26,1.57,2.56,3.11,3.93,4.58.92,1,1.89,1.92,2.88,2.82,0,.45,0,.9,0,1.35A26,26,0,0,0,834.69,99,20.65,20.65,0,0,0,833,108.17Z"/><path class="cls-1" d="M482.84,28.07c-.58-13-10.55-24-24-24-12.55,0-24.58,11-24,24s10.55,24,24,24C471.39,52.07,483.42,41,482.84,28.07Z"/><path class="cls-2" d="M314.7,601.91a18.16,18.16,0,0,0,1.81-8.67c-.51-11.38-9.23-21-21-21a20.15,20.15,0,0,0-7.77,1.6c-.35-.16-.69-.34-1-.49-5.79-2.5-11,4.1-8.62,8.2a18.79,18.79,0,0,0-3.57,11.69,22.15,22.15,0,0,0,11.06,18.44,18.31,18.31,0,0,0-1.8,8.68,23.54,23.54,0,0,0,.81,5.06,16,16,0,0,0-3.21,2.53,20.21,20.21,0,0,0-10.33-2.8,21.44,21.44,0,0,0-13.55,5.11,14.51,14.51,0,0,0-7-1.75c-7.84,0-15.36,6.89-15,15s6.59,15,15,15a13.93,13.93,0,0,0,3.46-.46,20.46,20.46,0,0,0,17.05,9.1,21.88,21.88,0,0,0,19.9-14c.41,0,.83.06,1.26.06a15.48,15.48,0,0,0,14.77-12c10.15-1.17,19.27-10.29,18.8-20.86A22.17,22.17,0,0,0,314.7,601.91Z"/></g><g id="Layer_2" data-name="Layer 2"><path class="cls-3" d="M632,100.75a186,186,0,0,1,26.12,24.56,167.83,167.83,0,0,1,32.49,52.92A165,165,0,0,1,701,240.88c-1,34.1-12.32,58.61-17.72,70a188.84,188.84,0,0,1-25.63,40L467.32,407.69A188.38,188.38,0,0,1,424,388.28c-10.76-6.56-33.66-20.85-53.19-48.83a165.16,165.16,0,0,1-25.69-58.08c-6.34-28.36-3.38-51-1.83-62.07a186.82,186.82,0,0,1,8.38-34.85Z"/><path class="cls-3" d="M352.16,147.77,610.88,70.54c12-4.93,24.08.06,27.29,7.51,3.57,8.3-2.73,22.45-17.28,26L362.17,181.3c-12.6,5.62-25.69-1.38-28.14-10.38C331.64,162.14,338.93,149.82,352.16,147.77Z"/><path class="cls-3" d="M352.16,147.77c5.84-11.45,36.9-69.46,108-92.76C537,29.81,600.78,64.78,610.88,70.54"/><path class="cls-3" d="M467.32,407.69,658,350.77c10-1.48,18.84,5.46,19.8,13.91.77,6.73-3.51,13.74-10.65,16.75L476.47,438.35a16.65,16.65,0,0,1-9.15-30.66Z"/><circle class="cls-3" cx="459.98" cy="30.01" r="24"/><path class="cls-4" d="M87.17,691.27h115c5.25-.45,9.46,2.71,10,6,.63,3.81-3.5,9.05-10,9h-115c-6.56.58-11.2-4.25-11-8C76.36,694.68,81,690.57,87.17,691.27Z"/><path class="cls-4" d="M6.17,523.27h275c1.86,16.5,5,64.26-24,112a174.35,174.35,0,0,1-55,56h-115a192.73,192.73,0,0,1-50-52C6.2,591.56,5.37,543.11,6.17,523.27Z"/><path class="cls-3" d="M241.77,656.65c37.22,14.9,74-6.91,79.4-33.38,4.38-21.48-11.36-48.55-40-59"/><path class="cls-3" d="M274.2,597.54c11.83,3.48,16.7,16,13,23.73-3.53,7.33-15.22,11.39-25.24,5.64"/><path class="cls-3" d="M255.17,541.27a125.46,125.46,0,0,1-27,90"/><path class="cls-5" d="M164,213.38l.16,28.89a14.71,14.71,0,0,0-6,7,14.41,14.41,0,0,0-1,6v268h-31q-.51-135-1-270a38.39,38.39,0,0,1,9-27c11.42-13.21,27.67-13,29.84-12.89"/></g><g id="Layer_3" data-name="Layer 3"><path class="cls-3" d="M391.52,363.52c-3.47,3.72-14.49,14.53-30.86,15.48-17.58,1-30.19-10-37.14-16.05-8.34-7.27-11.53-13.17-30.4-49.37-16.76-32.18-18.58-35.85-24.27-42.85-8.45-10.4-19.86-24.08-39.23-30-12.48-3.84-24-3.16-29-2.82a90.14,90.14,0,0,0-25.49,5.52,46.47,46.47,0,0,1-9.55-18c-4.13-15.32,1.06-28.12,2.91-32.18a129.18,129.18,0,0,1,35.07-8.38c4.73-.44,14.18-1.07,29.41.62,18.16,2,31,5.8,77.17,20.79,11,3.57,21.06,6.86,30.06,9.81"/><circle class="cls-6" cx="432.28" cy="255.35" r="8"/><circle class="cls-6" cx="592.3" cy="207.58" r="8"/><path class="cls-3" d="M522.23,322.42A161.75,161.75,0,0,0,566.82,283a158,158,0,0,0,15-23.26"/><line class="cls-3" x1="573.95" y1="247.49" x2="600.46" y2="269.85"/><path class="cls-7" d="M396.77,307.69l31.62-9.44a11.54,11.54,0,0,1,6.29,21.08l-31.62,9.44c-7,0-12.41-5.21-12.63-10.84C390.28,313.88,392.8,309.9,396.77,307.69Z"/><path class="cls-7" d="M634.41,236.75,666,227.31a11.54,11.54,0,0,1,6.29,21.08l-31.62,9.44c-7,0-12.41-5.21-12.63-10.84C627.91,242.94,630.44,239,634.41,236.75Z"/><path class="cls-3" d="M693.43,291.14"/><path class="cls-3" d="M775.51,87.14c5.23-12.31,18.15-16.17,20.83-16.89,11.33-3.07,27.94-1,36.53,12.49,7.67,12,5.61,27.94-3.9,38.17a32.24,32.24,0,0,1-37.47,6.84C776.32,120.31,769.49,101.3,775.51,87.14Z"/><path class="cls-3" d="M701,281.58c21.22,7.54,44.88-5.71,53.42-25.65,4.38-10.23,5.22-19.13,4.76-35-.91-30.86-11-41.18-10.1-68.52A111.11,111.11,0,0,1,753.43,125"/><path class="cls-3" d="M671.14,136a275.89,275.89,0,0,0,23-27.75C704,94.8,706.91,88.15,715.47,74.8,730.93,50.68,738.66,38.62,750.11,30,755.52,26,780.64,8.21,813.25,14.3c28.62,5.35,44.66,25.63,49,31.29,2.13,2.78,31.29,42.2,12.53,83.93-2.52,5.6-18.11,38.38-53.89,43.22-25.52,3.44-51.44-8.65-66.72-31.22"/><path class="cls-3" d="M615.79,125.43a125.53,125.53,0,0,1,21,17.75,127.24,127.24,0,0,1,25.33,39.4"/><path class="cls-3" d="M197,201.38a285.61,285.61,0,0,1,118.83,24"/><path class="cls-3" d="M498.83,62.24a108.53,108.53,0,0,1,54.1,9.94"/><path class="cls-3" d="M779.8,31.59a68.27,68.27,0,0,1,34.38,3.31c23.27,8.63,34.13,27.54,36.93,32.81"/><line class="cls-3" x1="855.97" y1="84" x2="855.97" y2="84"/><circle class="cls-6" cx="80.2" cy="586.4" r="8"/><circle class="cls-6" cx="197.2" cy="586.4" r="8"/><line class="cls-3" x1="217.17" y1="641.27" x2="217.17" y2="641.27"/><path class="cls-3" d="M125.17,631.27c1-1.12,8.16-9.23,20-9a26.37,26.37,0,0,1,19,9"/><path class="cls-5" d="M45.17,470.27c-1.84-1.69-13.7-12.68-11-28a29.19,29.19,0,0,1,19-22c1.09-.39,12.64-4.28,24,2,14.12,7.8,15.81,24.63,16,27,.83,10.49-3.79,13.75-5,27a65.73,65.73,0,0,0,3,26c-8.66-11.32-17.45-17.47-24-21C56.8,475.66,52.09,476.62,45.17,470.27Z"/><path class="cls-5" d="M225.42,492.54c1.46-.77,10.94-5.77,12.25-16.29a19.62,19.62,0,0,0-7.47-17.88A18.94,18.94,0,0,0,215,455.26c-10.26,2.5-14.58,13.19-15.15,14.7-2.56,6.71-.34,9.7-2.17,18.58A47.2,47.2,0,0,1,190.73,505a49,49,0,0,1,18.94-9.31C217.17,493.92,219.9,495.42,225.42,492.54Z"/></g></svg>