<svg xmlns="http://www.w3.org/2000/svg" viewBox="0 0 297.14 528.95"><defs><style>.cls-1{fill:#f2c834;}.cls-1,.cls-2,.cls-3,.cls-4{stroke:#51192c;stroke-width:10px;}.cls-1,.cls-2,.cls-4{stroke-linecap:round;stroke-linejoin:round;}.cls-2{fill:#51192c;}.cls-3,.cls-4{fill:none;}.cls-3{stroke-miterlimit:10;}</style></defs><title>hero</title><g id="flavours"><path class="cls-1" d="M209.86,232.81A77.19,77.19,0,0,0,213,254.45c4.06,13.85,11.62,21.27,19.58,34C246.6,311,250.76,314,258.82,329.18c7.91,14.9,15.37,28.93,17.52,49a111,111,0,0,1-6.7,50c-9.07,24.09-23.93,38.32-31.44,45.35A131.79,131.79,0,0,1,84.1,492.05a132,132,0,0,1-40.71-36.6,113.38,113.38,0,0,1-17-31.95,97.73,97.73,0,0,1-5.67-36.59c.52-11.85,3.18-20.05,7.21-32.47a204.15,204.15,0,0,1,18-40.2c7.08-12,7.78-10.33,22.68-33.5,7.48-11.64,11.41-18.45,14.43-27.83a90.18,90.18,0,0,0,4.12-21.65Z"/></g><g id="tapioca"><circle class="cls-2" cx="99.47" cy="464.32" r="22.09"/><circle class="cls-2" cx="187.62" cy="409.79" r="22.09"/><circle class="cls-2" cx="202.51" cy="461.32" r="22.09"/><circle class="cls-2" cx="151.29" cy="476.98" r="22.09"/><circle class="cls-2" cx="61.9" cy="425.47" r="22.09"/><circle class="cls-2" cx="240.33" cy="425.44" r="22.09"/><circle class="cls-2" cx="136.21" cy="425.24" r="22.09"/><circle class="cls-2" cx="98.47" cy="386.7" r="22.09"/></g><g id="cup"><line class="cls-3" x1="102.68" y1="192.75" x2="194.05" y2="192.75"/><path class="cls-3" d="M103.46,192.75a23.35,23.35,0,0,0-10.83,1.75c-6,2.56-9.18,7.09-11.86,10.91a45,45,0,0,0-6.16,13.27c-1.11,3.89-1,5.3-1.9,11.86S70.85,243.79,68.92,250c-1.63,5.22-4,9.24-8.54,17.07-7.1,12.15-13.47,20.78-14.22,21.82a256.09,256.09,0,0,0-23.85,41.45c-8.23,17.5-14.79,31.45-16.26,51.1-1.7,22.86,4.45,40.45,7.74,49.55A137.93,137.93,0,0,0,44,479,148.33,148.33,0,0,0,95.86,513c37.05,14.56,69,10.21,75.1,9.29a145.3,145.3,0,0,0,61.17-24.77,143.67,143.67,0,0,0,43.35-48,133.41,133.41,0,0,0,13.94-39.49c1.73-9.66,5.83-34.22-3.87-61.16-4.34-12.05-10.43-21.81-18.58-34.84-4-6.36-10.53-16.29-16.64-25.2-4.9-7.15-8.92-12.8-14.23-21.82-4.55-7.74-6.86-11.72-8.53-17.07-1.94-6.19-2.88-12.92-3.8-19.44s-.79-8-1.89-11.86a45,45,0,0,0-6.17-13.27c-2.68-3.82-5.85-8.35-11.85-10.91a23.54,23.54,0,0,0-10.81-1.75"/><polyline class="cls-4" points="99.92 192.75 99.92 173.78 196.41 173.78 196.41 192.75"/><path class="cls-4" d="M108.78,124.11a61.35,61.35,0,0,1,12-25.39"/><path class="cls-4" d="M186.19,124.11a61.35,61.35,0,0,0-12-25.39"/><line class="cls-4" x1="120.78" y1="98.72" x2="174.19" y2="98.72"/><path class="cls-4" d="M185,211.88a140.81,140.81,0,0,0,22.88,78.85"/><line class="cls-4" x1="221.02" y1="311.9" x2="221.02" y2="311.9"/><path class="cls-2" d="M131.83,98.72Q140.77,52,149.72,5.32l37.54,6.86Q179,55.46,170.72,98.72"/><path class="cls-2" d="M114.23,192.75q-13.31,69.84-26.6,139.68l38.84,7.69,26.28-147.37"/><path class="cls-4" d="M105.27,171.29q0-23.59,0-47.18h84.46V171"/><line class="cls-4" x1="159.54" y1="124.71" x2="108.65" y2="143.06"/><line class="cls-4" x1="187.7" y1="133.18" x2="107.19" y2="162.22"/><line class="cls-4" x1="186.19" y1="152.12" x2="126.14" y2="173.78"/></g></svg>