<svg xmlns="http://www.w3.org/2000/svg" viewBox="0 0 296.01 528.33"><defs><style>.cls-1,.cls-2{fill:none;}.cls-1,.cls-2,.cls-3{stroke:#51192c;stroke-width:10px;}.cls-1,.cls-3{stroke-linecap:round;stroke-linejoin:round;}.cls-2{stroke-miterlimit:10;}.cls-3{fill:#51192c;}</style></defs><title>websiteherobbt</title><g id="flavours"><path class="cls-1" d="M209.1,232.49a77.23,77.23,0,0,0,3.09,21.64c4.07,13.85,11.63,21.27,19.58,34,14.07,22.53,18.23,25.55,26.29,40.71,7.91,14.9,15.37,28.93,17.52,49a111,111,0,0,1-6.7,50c-9.06,24.09-23.93,38.32-31.44,45.35a131.76,131.76,0,0,1-154.1,18.55,131.8,131.8,0,0,1-40.71-36.59,113.79,113.79,0,0,1-17-31.95A97.73,97.73,0,0,1,20,386.59c.52-11.85,3.18-20,7.22-32.47a204.3,204.3,0,0,1,18-40.2c7.08-12,7.79-10.33,22.68-33.5,7.48-11.64,11.41-18.45,14.43-27.83a90.28,90.28,0,0,0,4.13-21.65Z"/></g><g id="cup"><line class="cls-2" x1="101.92" y1="192.43" x2="193.29" y2="192.43"/><path class="cls-2" d="M102.7,192.43a23.35,23.35,0,0,0-10.83,1.75c-6,2.56-9.17,7.09-11.85,10.91a45,45,0,0,0-6.17,13.27c-1.11,3.89-1,5.3-1.9,11.86s-1.86,13.25-3.79,19.44c-1.63,5.22-4,9.24-8.53,17.07-7.11,12.15-13.48,20.78-14.23,21.81C32.92,305.84,25,322.73,21.55,330c-8.23,17.5-14.79,31.45-16.26,51.1C3.59,404,9.74,421.55,13,430.65a137.93,137.93,0,0,0,30.2,48A148.33,148.33,0,0,0,95.1,512.72c37.05,14.56,69,10.21,75.1,9.29a145.3,145.3,0,0,0,61.17-24.77,143.75,143.75,0,0,0,43.36-48,133,133,0,0,0,13.93-39.49c1.73-9.66,5.83-34.22-3.87-61.16-4.34-12-10.43-21.81-18.58-34.84-4-6.36-10.53-16.29-16.64-25.21-4.9-7.14-8.92-12.79-14.23-21.81-4.55-7.74-6.86-11.72-8.53-17.07-1.94-6.19-2.88-12.92-3.8-19.44s-.79-8-1.89-11.86A45,45,0,0,0,215,205.09c-2.68-3.82-5.85-8.35-11.85-10.91a23.53,23.53,0,0,0-10.81-1.75"/><polyline class="cls-1" points="99.17 192.43 99.17 173.46 195.65 173.46 195.65 192.43"/><path class="cls-1" d="M184.21,211.56a140.81,140.81,0,0,0,22.88,78.85"/><line class="cls-1" x1="220.26" y1="311.58" x2="220.26" y2="311.58"/><path class="cls-3" d="M131.07,98.4Q140,51.7,149,5l37.54,6.86Q178.24,55.14,170,98.4"/><path class="cls-3" d="M113.47,192.43q-13.31,69.84-26.6,139.68l38.84,7.69L152,192.43"/><polyline class="cls-1" points="99.17 192.43 99.17 173.46 195.65 173.46 195.65 192.43"/><path class="cls-1" d="M104.51,171q0-23.59,0-47.18H189v46.84"/><path class="cls-1" d="M108,123.79A61.35,61.35,0,0,1,120,98.4"/><path class="cls-1" d="M185.43,123.79a61.35,61.35,0,0,0-12-25.39"/><line class="cls-1" x1="120.02" y1="98.4" x2="173.43" y2="98.4"/><line class="cls-1" x1="158.78" y1="124.39" x2="104.24" y2="144.06"/><line class="cls-1" x1="186.94" y1="132.86" x2="106.43" y2="161.9"/><line class="cls-1" x1="185.43" y1="151.8" x2="125.38" y2="173.45"/></g></svg>