<svg xmlns="http://www.w3.org/2000/svg" xmlns:xlink="http://www.w3.org/1999/xlink" viewBox="0 0 1920 667.73"><defs><style>.cls-1{fill:url(#linear-gradient);}.cls-2{fill:url(#linear-gradient-2);}</style><linearGradient id="linear-gradient" x1="960" y1="57.73" x2="960" y2="667.73" gradientUnits="userSpaceOnUse"><stop offset="0" stop-color="#333"/><stop offset="0.1" stop-color="#3c3b39"/><stop offset="0.26" stop-color="#564f48"/><stop offset="0.46" stop-color="#7f7161"/><stop offset="0.7" stop-color="#b8a083"/><stop offset="0.87" stop-color="#e5c49e"/><stop offset="0.99" stop-color="#e5c49e"/></linearGradient><linearGradient id="linear-gradient-2" x1="960" y1="667.73" x2="960" y2="0" xlink:href="#linear-gradient"/></defs><title>footer</title><g id="Layer_2" data-name="Layer 2"><path class="cls-1" d="M1920,57.73c-75.88,8-130.92,31.49-164,49-49.07,26-84.17,56.87-115,84-40.6,35.74-65,64.09-77,77-80.77,87-228.12,152.32-364,154-58.26.72-113.17-16.85-223-52-166.51-53.29-181.06-86.88-315-121-129.91-33.09-228.5-30.09-254-29-55.38,2.37-141.44,6.84-242,50a610.79,610.79,0,0,0-166,106v292H1920Z"/></g><g id="Layer_3" data-name="Layer 3"><path class="cls-2" d="M0,229.73c24.27,8.12,59.36,19.49,102,32,29.29,8.6,89.77,26.34,131,35,106.29,22.32,198.76,8.18,237,2,131.36-21.23,223.61-75,269-102,74.24-44.19,67.2-55.75,144-100,56.59-32.6,125.53-72.32,223-89,130.43-22.32,238.36,9.22,283,25,26.52,9.38,72.68,33.25,165,81,105.06,54.34,117.62,65.51,160,81,44.3,16.19,112.53,34,206,31v442H0Z"/></g></svg>