<svg id="Layer_1" data-name="Layer 1" xmlns="http://www.w3.org/2000/svg" viewBox="0 0 453.6 400.86"><defs><style>.cls-1{fill:#c54644;}.cls-1,.cls-2{stroke:#51192c;stroke-linecap:round;stroke-linejoin:round;stroke-width:20px;}.cls-2{fill:#fff;}</style></defs><title>bg</title><path class="cls-1" d="M190.63,27c33.82,26.88,15.54,69.79,52.2,92.33,29.33,18,48.47-2.19,96.94,15.39,10.29,3.74,42,15.68,67.11,46.17,22.86,27.77,49.58,82.31,29.82,130.8-18.37,45.09-66.78,60-96.93,69.24C233.13,413.71,139,355.29,131,350.15c-25.28-16.24-109.35-75.68-119.31-177-2.28-23.17-8.36-85,33.87-127C85.55,6.42,154.81-1.47,190.63,27Z"/><path class="cls-2" d="M355.2,175.51c-9.92-1.31-24.76-3.47-42.66-6.92-36-6.93-56.68-11.06-81.3-23.06-28.53-13.91-40.88-27.93-45-32.86a110.67,110.67,0,0,1-14.41-22.49c-1.23-1.41-7.39-8.26-12.93-7-6.18,1.45-11.18,13-7.93,28.57a110.5,110.5,0,0,0,14.41,22.49c4.09,4.93,16.44,18.95,45,32.86,24.61,12,45.31,16.13,81.29,23.06,17.91,3.45,32.75,5.61,42.66,6.92,14.81,3,25.85-2.83,27.13-9.33C362.54,182.29,356.53,176.7,355.2,175.51Z"/></svg>