<svg xmlns="http://www.w3.org/2000/svg" viewBox="0 0 296.01 528.33"><defs><style>.cls-1{fill:none;stroke:#51192c;stroke-linecap:round;stroke-linejoin:round;stroke-width:10px;}</style></defs><title>websiteherobbt</title><g id="aloe_vera" data-name="aloe vera"><rect class="cls-1" x="153.34" y="426.8" width="25.94" height="37.92" transform="translate(-132.66 75.66) rotate(-18.47)"/><rect class="cls-1" x="96.06" y="465.07" width="37.92" height="25.94" transform="translate(-375.37 442.5) rotate(-72.33)"/><rect class="cls-1" x="145.81" y="466.78" width="25.94" height="37.92" transform="translate(-337.09 609.28) rotate(-85.89)"/><rect class="cls-1" x="106" y="418.33" width="37.92" height="25.94" transform="translate(-313.84 335.96) rotate(-61.58)"/><rect class="cls-1" x="188.13" y="453.84" width="37.92" height="25.94" transform="translate(-216.05 180.89) rotate(-32.03)"/><rect class="cls-1" x="222.45" y="418.76" width="25.94" height="37.92" transform="translate(-185.65 173.67) rotate(-29.64)"/><rect class="cls-1" x="35.56" y="395.92" width="25.94" height="37.92" transform="translate(-191.43 72.97) rotate(-28.39)"/><rect class="cls-1" x="67.2" y="437.08" width="25.94" height="37.92" transform="translate(-380.63 410.66) rotate(-74.41)"/><rect class="cls-1" x="73.9" y="395.92" width="25.94" height="37.92" transform="translate(-275.18 194.44) rotate(-46.84)"/><rect class="cls-1" x="95.06" y="375.15" width="37.92" height="25.94" transform="translate(-65.93 25.83) rotate(-10.04)"/><rect class="cls-1" x="182.68" y="395.87" width="25.94" height="37.92" transform="translate(-261.61 450.56) rotate(-69.22)"/></g></svg>