<svg xmlns="http://www.w3.org/2000/svg" viewBox="0 0 296.01 528.33"><defs><style>.cls-1,.cls-2,.cls-3{fill:#51192c;stroke:#51192c;stroke-linecap:round;stroke-linejoin:round;}.cls-1{stroke-width:10px;}.cls-2{stroke-width:12.08px;}.cls-3{stroke-width:9.44px;}</style></defs><title>websiteherobbt</title><g id="grass_jelly" data-name="grass jelly"><polygon class="cls-1" points="97.82 436.48 75.74 477.54 161.25 466.88 134.74 432.24 97.82 436.48"/><polygon class="cls-1" points="168.48 459.04 180.93 496.74 209.43 458.34 168.48 459.04"/><polygon class="cls-1" points="209.43 404.98 216.14 437.78 258.93 427.8 251.08 392.85 209.43 404.98"/><path class="cls-1" d="M64.76,388.57,40.51,442.06l46.36-5.7Z"/><path class="cls-1" d="M218.2,445.85l.54,25.19,21.88-10.5Z"/><polygon class="cls-1" points="147.33 478.1 163.21 487.74 155.27 501.91 140.77 493.69 147.33 478.1"/><path class="cls-2" d="M98.94,363.77,80.83,402.34l44,20,17.87-38Z"/><path class="cls-3" d="M168.48,409.7l-6.71,33.13,36.67,6.47q3.31-16.31,6.64-32.61Z"/><path class="cls-1" d="M134.08,410.34,145.9,432.6l14.82-19.22Z"/></g></svg>