<svg xmlns="http://www.w3.org/2000/svg" viewBox="0 0 296.01 528.33"><defs><style>.cls-1{fill:#c54644;stroke:#51192c;stroke-linecap:round;stroke-linejoin:round;stroke-width:10px;}</style></defs><title>websiteherobbt</title><g id="red_bean" data-name="red bean"><path class="cls-1" d="M81.91,432.22c4.63,3.57,2.13,9.27,7.15,12.26,4,2.4,6.64-.29,13.28,2a21.39,21.39,0,0,1,9.2,6.13c3.13,3.69,6.79,10.93,4.08,17.37-2.51,6-9.15,8-13.28,9.19-14.61,4.36-27.5-3.4-28.6-4.08-3.46-2.16-15-10.05-16.35-23.5-.31-3.07-1.14-11.29,4.65-16.86C67.52,429.49,77,428.44,81.91,432.22Z"/><path class="cls-1" d="M153.75,449.76c2.71,5.18-2,9.3,1.35,14.13,2.64,3.86,6.15,2.52,11.2,7.42a21.28,21.28,0,0,1,5.77,9.42c1.3,4.66,1.58,12.77-3.57,17.48-4.8,4.38-11.65,3.39-15.92,2.78-15.08-2.18-23.54-14.63-24.25-15.71-2.24-3.41-9.38-15.4-5-28.18,1-2.93,3.7-10.73,11.28-13.36C141.82,441.24,150.88,444.27,153.75,449.76Z"/><path class="cls-1" d="M57.43,420.62c-3.9-4.35-.39-9.5-4.78-13.36-3.52-3.09-6.58-.93-12.69-4.44a21.33,21.33,0,0,1-7.91-7.71c-2.4-4.2-4.68-12-.84-17.82,3.58-5.43,10.46-6.15,14.74-6.61,15.16-1.6,26.42,8.39,27.37,9.26,3,2.75,12.89,12.62,11.77,26.09-.26,3.08-.94,11.31-7.65,15.73C71.08,426,61.56,425.24,57.43,420.62Z"/><path class="cls-1" d="M209.48,479.27c-5.67-1.42-5.65-7.64-11.45-8.38-4.64-.59-6,2.91-13,3.42a21.24,21.24,0,0,1-10.88-1.95c-4.34-2.13-10.59-7.31-10.67-14.29-.09-6.5,5.21-10.95,8.5-13.73,11.66-9.82,26.59-7.86,27.86-7.67,4,.6,17.75,3.24,24.36,15,1.52,2.7,5.56,9.9,2.48,17.32C223.77,476,215.49,480.78,209.48,479.27Z"/><path class="cls-1" d="M234.22,386.38c-2.4,5.33,2.5,9.17-.52,14.18-2.41,4-6,2.87-10.74,8.06a21.32,21.32,0,0,0-5.22,9.75c-1,4.73-.83,12.84,4.59,17.24,5,4.09,11.83,2.7,16,1.84,14.93-3.06,22.65-16,23.29-17.1,2-3.54,8.47-15.93,3.33-28.43-1.18-2.86-4.32-10.49-12.05-12.68C245.63,377.17,236.77,380.73,234.22,386.38Z"/><path class="cls-1" d="M109,438.71c5.7-1.32,5.79-7.55,11.6-8.18,4.65-.51,5.92,3,12.93,3.66a21.22,21.22,0,0,0,10.91-1.75c4.38-2.06,10.72-7.12,10.93-14.1.2-6.49-5-11-8.26-13.88-11.48-10-26.43-8.34-27.71-8.17-4,.52-17.8,2.91-24.63,14.57-1.57,2.67-5.74,9.79-2.79,17.27C94.72,435.21,102.91,440.1,109,438.71Z"/><path class="cls-1" d="M186.13,376.54c3.68,4.54-.08,9.5,4.11,13.58,3.36,3.26,6.53,1.25,12.45,5.07a21.28,21.28,0,0,1,7.52,8.09c2.19,4.31,4.07,12.21-.05,17.84-3.84,5.24-10.75,5.62-15,5.86-15.22.85-26-9.68-26.88-10.6-2.87-2.9-12.24-13.25-10.45-26.65.41-3.06,1.5-11.24,8.42-15.32C172.76,370.54,182.23,371.72,186.13,376.54Z"/></g></svg>