<svg id="Layer_1" data-name="Layer 1" xmlns="http://www.w3.org/2000/svg" viewBox="0 0 442.98 365.05"><defs><style>.cls-1{fill:#f5ab54;stroke:#51192c;}.cls-1,.cls-2{stroke-linecap:round;stroke-linejoin:round;stroke-width:20px;}.cls-2{fill:none;stroke:#fff;}</style></defs><title>bg</title><path class="cls-1" d="M77.15,111.49c-48,35.9-74,88.38-65.58,133.55,8.81,47.15,52.15,70.56,72.75,81.68,45.48,24.55,66.2,11.61,178.36,19,81.7,5.42,98.34,18,124.08-.23,40.45-28.63,59-101.84,36.58-143.57-19.49-36.29-54.54-20-92.5-60.5-45-48-26.33-103.42-56.4-124.5C249.75-.35,197,8.86,77.15,111.49Z"/><path class="cls-2" d="M192.92,77.92c-25.45,11.49-66.64,34.43-102,78a272.31,272.31,0,0,0-36,58"/><line class="cls-2" x1="221.48" y1="53.88" x2="221.49" y2="53.88"/></svg>