<svg id="Layer_1" data-name="Layer 1" xmlns="http://www.w3.org/2000/svg" viewBox="0 0 496.1 452.39"><defs><style>.cls-1{fill:#f5ab54;stroke:#51192c;stroke-miterlimit:10;}.cls-1,.cls-2{stroke-width:20px;}.cls-2{fill:none;stroke:#fff;stroke-linecap:round;stroke-linejoin:round;}</style></defs><title>bg</title><path class="cls-1" d="M217,106.12c-41-15.37-31.75-67.19-77.44-88.5C113,5.23,80.09,8.83,57.69,22,6.52,52.22-2.92,140.21,26.71,192.4c27.39,48.23,68.63,31.49,101.77,86.28,26.43,43.69,11.2,72.52,44.25,110.62,23.56,27.16,52.82,37.33,66.37,42,53.46,18.57,142.7,19.67,201.33-44.25,63.86-69.62,54.23-175.85,11.06-230.09-21.66-27.22-53.29-43.24-55.31-44.25-33-16.36-63-17.31-81.86-17.7C253.17,93.78,245,116.64,217,106.12Z"/><path class="cls-2" d="M139.36,100.73c4.7,9.32,19,34.67,49.62,49.62,45.8,22.39,90.06,2.89,96.32,0"/><path class="cls-2" d="M329.05,140.26c7-.36,40.63-1.35,70,24s33.36,59.08,34,66"/></svg>