<svg id="Layer_1" data-name="Layer 1" xmlns="http://www.w3.org/2000/svg" viewBox="0 0 391.05 417.26"><defs><style>.cls-1{fill:#f5ab54;stroke:#51192c;stroke-miterlimit:10;}.cls-1,.cls-2{stroke-width:20px;}.cls-2{fill:none;stroke:#fff;stroke-linecap:round;stroke-linejoin:round;}</style></defs><title>bg</title><path class="cls-1" d="M291.88,11C249.94,5.32,207,24.43,185.69,55.24c-27.86,40.31-.25,74.11-28.76,104-24.76,25.95-51.91,7.08-90.71,37.61C37.44,219.48,26.6,250.13,22,263.21c-6.53,18.47-20.71,58.55-4.42,90.7C39,396.2,101.21,400.68,145.87,404.8c28.38,2.61,157.07,14.48,196.9-53.1,19.58-33.22-4.84-47.45,4.42-126.1C357.73,136.17,394.37,111.49,376,68.52,361.42,34.59,323.73,15.3,291.88,11Z"/><path class="cls-2" d="M264.89,47a51.08,51.08,0,0,0-30,10c-18.08,13.62-19.79,34.71-20,38"/><path class="cls-2" d="M184.89,185a154.07,154.07,0,0,0-60,24,155.65,155.65,0,0,0-54,64"/><line class="cls-2" x1="214.89" y1="134.99" x2="214.9" y2="134.99"/></svg>