<svg id="Layer_1" data-name="Layer 1" xmlns="http://www.w3.org/2000/svg" viewBox="0 0 308.34 421.48"><defs><style>.cls-1{fill:#f5ab54;stroke:#51192c;}.cls-1,.cls-2{stroke-linecap:round;stroke-linejoin:round;stroke-width:20px;}.cls-2{fill:none;stroke:#fff;}</style></defs><title>bg</title><path class="cls-1" d="M119.27,394c-47.76-25.26-62-72.45-84.64-142.22C16.49,195.82-7.92,120.47,30,59.6,43.42,38,72.86,5.13,98.68,10.61c31.43,6.67,20.29,62.31,64.89,123.53,46.57,63.93,93.11,50.48,120.41,107.4,18.62,38.84,23.56,100.55-12.43,138.83C232.17,422.25,162.07,416.64,119.27,394Z"/><path class="cls-2" d="M62.65,83.1a179,179,0,0,0,0,92"/><path class="cls-2" d="M184.65,199.1a133.24,133.24,0,0,1,38,28,134.5,134.5,0,0,1,32,58"/><line class="cls-2" x1="258.04" y1="329.1" x2="258.05" y2="329.1"/></svg>