<svg id="Layer_1" data-name="Layer 1" xmlns="http://www.w3.org/2000/svg" viewBox="0 0 448.32 356.15"><defs><style>.cls-1{fill:#f5ab54;stroke:#51192c;stroke-miterlimit:10;}.cls-1,.cls-2{stroke-width:20px;}.cls-2{fill:none;stroke:#fff;stroke-linecap:round;stroke-linejoin:round;}</style></defs><title>bg</title><path class="cls-1" d="M167.08,22.08c-11.29,3.78-49.71,17.67-86.28,53.1C71,84.69,9.39,146.22,10,236.68c.21,30.17.49,71.22,31,92.92,28.37,20.2,73.39,16.88,97.34-4.42,27-24,10.46-60.06,39.83-79.65,15-10,36.29-12.13,51.72-4.83,10.66,5.05,14.25,12.56,29.8,37.75,21.67,35.11,32.5,52.66,40.16,57.79,23.9,16,61.5,11.29,86.05-4.66,29.18-19,36.44-50.8,44.48-86,6-26.45,15.41-67.59-2.21-115C408,76.28,365.75,49.13,350.71,39.78,269.91-10.48,182.44,16.94,167.08,22.08Z"/><path class="cls-2" d="M141.85,71c18.83-9.34,60.08-26.35,112-20,18.81,2.3,55.94,6.84,88,36a135.18,135.18,0,0,1,30,40"/><line class="cls-2" x1="385.84" y1="159.02" x2="385.85" y2="159.02"/></svg>