<svg xmlns="http://www.w3.org/2000/svg" viewBox="0 0 296.01 528.33"><defs><style>.cls-1{fill:#f5ab54;stroke:#51192c;stroke-linecap:round;stroke-linejoin:round;stroke-width:10px;}</style></defs><title>websiteherobbt</title><g id="pudding"><path class="cls-1" d="M101.94,441.59c-11.8,8.11-18.06,20.14-15.8,30.6,2.35,10.93,13.2,16.49,18.36,19.13,11.37,5.84,16.47,2.92,44.34,5.05,20.31,1.55,24.48,4.51,30.81.39,9.94-6.46,14.28-23.3,8.56-33-5-8.45-13.61-4.83-23.18-14.31-11.36-11.25-6.91-24-14.46-29C144.38,416.38,131.31,418.32,101.94,441.59Z"/><path class="cls-1" d="M51.69,446.51c-12.62-6.72-16.42-19.23-22.42-37.73C24.45,393.93,18,374,27.94,357.84c3.54-5.72,11.3-14.42,18.12-13,8.31,1.79,5.39,16.53,17.2,32.78,12.33,17,24.62,13.42,31.85,28.52,4.94,10.31,6.28,26.67-3.21,36.79C81.52,454.05,63,452.53,51.69,446.51Z"/><path class="cls-1" d="M210.32,376.65c-14.26-4.32-22.67-6.87-33.34-4.16-3.92,1-20.85,5.29-25,19.9-2.12,7.55-.65,17.27,5.26,23.31,8.57,8.74,18.37,1.54,27.37,9.14,11.35,9.59,2.56,26.78,15.17,37.53,6.23,5.31,13.78,5.72,16,5.84,20.21,1.09,42.58-20.33,42.87-43.15.21-16.41-11.06-28-14.49-31.54C235.12,384.15,225.12,381.13,210.32,376.65Z"/><path class="cls-1" d="M126.68,385.63c1.89.75,6.78,2.67,9.24,7.92a15,15,0,0,1,.66,10.56c-2.08,6.5-8.1,9.11-9.9,9.89-1.36.59-10.22,4.24-17.15-.66-7.54-5.32-9.2-18.22-2.64-25.07C114,380.84,126.09,385.4,126.68,385.63Z"/></g></svg>