<svg id="Layer_1" data-name="Layer 1" xmlns="http://www.w3.org/2000/svg" viewBox="0 0 512 512"><defs><style>.cls-1{fill:#51192c;}.cls-2{fill:none;stroke:#f2c834;stroke-linecap:round;stroke-linejoin:round;stroke-width:30px;}</style></defs><title>bg</title><path class="cls-1" d="M256,501.17A245.17,245.17,0,0,1,82.64,82.64,245.17,245.17,0,1,1,429.36,429.36,243.53,243.53,0,0,1,256,501.17Z"/><path class="cls-1" d="M256,21.66a234.41,234.41,0,0,1,91.21,450.27A234.4,234.4,0,0,1,164.79,40.07,232.74,232.74,0,0,1,256,21.66M256,0C114.62,0,0,114.62,0,256S114.62,512,256,512,512,397.38,512,256,397.38,0,256,0Z"/><path class="cls-2" d="M276.31,70.84a194.55,194.55,0,0,1,113.13,72.57c18.57,24.69,26.62,48,32,64a259.35,259.35,0,0,1,8.53,32"/><line class="cls-2" x1="441" y1="310.92" x2="441" y2="310.92"/></svg>